<?xml version="1.0" standalone="no"?>
<!DOCTYPE svg PUBLIC "-//W3C//DTD SVG 20010904//EN"
 "http://www.w3.org/TR/2001/REC-SVG-20010904/DTD/svg10.dtd">
<svg version="1.0" xmlns="http://www.w3.org/2000/svg"
 width="1024.000000pt" height="1024.000000pt" viewBox="0 0 1024.000000 1024.000000"
 preserveAspectRatio="xMidYMid meet">

<g transform="translate(0.000000,1024.000000) scale(0.100000,-0.100000)"
fill="#000000" stroke="none">
<path d="M4610 8061 c-288 -53 -503 -161 -671 -339 -176 -185 -260 -415 -246
-667 16 -272 136 -507 377 -739 165 -158 328 -281 920 -692 420 -291 585 -445
684 -633 63 -121 81 -199 81 -351 0 -151 -18 -231 -78 -345 -116 -217 -427
-339 -779 -305 -700 67 -1075 558 -1116 1460 l-7 145 -32 3 -33 3 0 -840 0
-841 34 0 c28 0 35 4 40 25 12 46 74 104 129 120 107 32 204 16 442 -73 162
-60 338 -109 475 -134 116 -20 510 -17 628 5 452 86 751 343 852 732 13 51 23
129 27 216 19 424 -152 737 -572 1053 -60 46 -234 165 -385 266 -343 228 -516
350 -628 444 -219 184 -344 358 -408 573 -23 76 -27 106 -27 218 0 114 3 139
26 203 55 156 134 247 272 313 102 49 205 69 348 69 306 0 562 -105 778 -319
192 -191 305 -456 357 -839 l18 -127 32 -3 32 -3 0 680 0 681 -35 0 c-33 0
-35 -2 -35 -32 -1 -42 -23 -103 -47 -130 -45 -51 -142 -70 -243 -47 -25 5
-119 45 -210 88 -297 142 -410 170 -695 176 -167 4 -217 2 -305 -14z"/>
<path d="M2216 3379 c-18 -14 -26 -30 -26 -50 0 -47 17 -67 63 -79 99 -26 125
-48 108 -93 -19 -49 -98 -53 -142 -6 -33 36 -49 32 -29 -7 39 -71 165 -71 198
1 17 36 15 48 -9 79 -13 16 -41 32 -77 42 -70 20 -93 40 -81 72 19 50 120 48
139 -4 5 -13 17 -24 25 -24 23 0 10 39 -21 68 -34 30 -110 31 -148 1z"/>
<path d="M2629 3377 c-92 -61 -91 -191 2 -259 91 -68 219 6 219 126 0 123
-124 198 -221 133z m139 -23 c93 -65 53 -234 -56 -234 -67 0 -122 56 -122 124
0 39 24 91 51 110 30 20 98 21 127 0z"/>
<path d="M3030 3250 l0 -150 85 0 c50 0 85 4 85 10 0 6 -30 10 -70 10 l-70 0
0 140 c0 118 -2 140 -15 140 -13 0 -15 -23 -15 -150z"/>
<path d="M3350 3398 c-1 -2 -2 -70 -3 -152 l-2 -149 48 1 c26 0 70 1 97 1 83
1 56 20 -32 23 l-83 3 -3 53 -3 52 75 0 c60 0 76 3 76 15 0 11 -17 15 -72 17
l-73 3 -1 40 c-1 64 0 65 87 65 64 0 79 3 79 15 0 12 -17 15 -95 15 -52 0 -95
-1 -95 -2z"/>
<path d="M3722 3248 c2 -110 6 -152 16 -156 9 -3 12 26 12 123 l0 128 66 -109
c77 -127 82 -134 100 -134 11 0 14 29 14 150 0 138 -1 150 -18 150 -17 0 -18
-9 -14 -121 3 -89 2 -120 -7 -115 -6 4 -11 11 -11 16 0 5 -10 24 -22 43 -13
19 -43 66 -68 105 -25 40 -51 72 -58 72 -10 0 -12 -34 -10 -152z"/>
<path d="M4120 3250 l0 -150 95 0 c57 0 95 4 95 10 0 6 -33 10 -80 10 l-80 0
0 55 0 55 70 0 c56 0 70 3 70 15 0 12 -14 15 -70 15 l-70 0 0 55 0 55 80 0
c64 0 80 3 80 15 0 12 -17 15 -95 15 l-95 0 0 -150z"/>
<path d="M4732 3248 l3 -152 65 3 c77 3 120 26 144 75 54 114 -26 226 -161
226 l-54 0 3 -152z m138 107 c57 -30 76 -118 39 -186 -13 -26 -67 -49 -114
-49 l-35 0 0 125 0 125 40 0 c23 0 54 -7 70 -15z"/>
<path d="M5130 3250 l0 -150 100 0 c60 0 100 4 100 10 0 6 -35 10 -85 10 l-85
0 0 55 0 55 70 0 c56 0 70 3 70 15 0 12 -14 15 -70 15 l-70 0 0 55 0 55 85 0
c69 0 85 3 85 15 0 12 -18 15 -100 15 l-100 0 0 -150z"/>
<path d="M5480 3393 c0 -3 22 -63 49 -132 27 -69 52 -134 55 -143 13 -41 34
-11 86 124 30 78 57 145 58 150 2 4 -4 8 -12 8 -9 0 -21 -12 -27 -27 -6 -16
-28 -72 -49 -127 -32 -83 -39 -95 -45 -75 -30 95 -89 229 -101 229 -8 0 -14
-3 -14 -7z"/>
<path d="M6164 3377 c-30 -26 -37 -74 -15 -101 8 -9 44 -25 81 -36 38 -11 71
-27 74 -36 19 -48 -10 -84 -68 -84 -29 0 -44 7 -66 30 -42 45 -67 39 -34 -8
57 -82 204 -57 204 35 0 48 -34 78 -104 93 -46 9 -57 16 -62 36 -8 33 1 53 31
64 38 15 100 -10 109 -44 4 -15 8 -18 17 -9 17 17 1 51 -31 68 -44 23 -104 19
-136 -8z"/>
<path d="M6467 3393 c-16 -16 -4 -23 38 -23 l45 0 0 -140 c0 -120 2 -139 15
-134 12 5 15 30 15 140 l0 134 50 0 c38 0 50 4 50 15 0 12 -18 15 -103 15 -57
0 -107 -3 -110 -7z"/>
<path d="M6830 3283 c0 -99 3 -123 20 -150 35 -58 135 -57 171 0 16 27 19 51
19 150 0 97 -3 117 -15 117 -12 0 -15 -20 -15 -120 0 -107 -2 -122 -20 -140
-28 -28 -81 -26 -108 3 -20 21 -22 34 -22 140 0 97 -3 117 -15 117 -12 0 -15
-20 -15 -117z"/>
<path d="M7240 3250 l0 -150 63 0 c105 0 159 49 160 143 1 101 -59 156 -170
157 l-53 0 0 -150z m140 103 c32 -22 44 -40 51 -82 15 -81 -28 -138 -109 -148
l-52 -6 0 127 0 126 43 0 c24 0 54 -8 67 -17z"/>
<path d="M7630 3250 c0 -127 2 -150 15 -150 13 0 15 23 15 150 0 127 -2 150
-15 150 -13 0 -15 -23 -15 -150z"/>
<path d="M7935 3390 c-78 -32 -108 -144 -60 -225 77 -133 265 -76 265 80 0 59
-25 106 -72 135 -34 21 -97 25 -133 10z m136 -48 c24 -21 32 -38 36 -75 15
-126 -96 -194 -185 -113 -35 33 -37 38 -37 96 0 57 2 64 33 91 45 40 108 41
153 1z"/>
</g>
</svg>
