<?xml version="1.0" standalone="no"?>
<!DOCTYPE svg PUBLIC "-//W3C//DTD SVG 20010904//EN"
 "http://www.w3.org/TR/2001/REC-SVG-20010904/DTD/svg10.dtd">
<svg version="1.0" xmlns="http://www.w3.org/2000/svg"
 width="96.000000pt" height="96.000000pt" viewBox="0 0 96.000000 96.000000"
 preserveAspectRatio="xMidYMid meet">

<g transform="translate(0.000000,96.000000) scale(0.100000,-0.100000)"
fill="#000000" stroke="none">
<path d="M457 864 c-4 -4 -7 -25 -7 -46 l0 -38 -65 0 c-57 0 -69 -3 -90 -25
-23 -22 -25 -31 -25 -117 1 -139 13 -148 210 -148 197 0 209 9 210 148 0 86
-2 95 -25 117 -21 21 -33 25 -89 25 l-65 0 -3 43 c-2 33 -7 43 -23 45 -12 2
-24 0 -28 -4z m173 -223 c0 -63 -3 -80 -16 -85 -20 -8 -248 -8 -268 0 -13 5
-16 22 -16 85 l0 79 150 0 150 0 0 -79z"/>
<path d="M387 663 c-15 -15 -6 -52 14 -58 28 -9 53 16 44 44 -6 20 -43 29 -58
14z"/>
<path d="M517 664 c-25 -25 8 -70 43 -59 32 10 24 59 -10 63 -14 2 -29 0 -33
-4z"/>
<path d="M374 439 c-99 -23 -208 -123 -221 -203 -4 -28 -1 -39 20 -60 l26 -26
281 0 281 0 26 26 c33 33 27 77 -19 142 -77 106 -238 156 -394 121z m215 -65
c73 -21 161 -106 161 -154 0 -7 -88 -10 -270 -10 -182 0 -270 3 -270 10 0 21
29 65 63 99 68 65 204 89 316 55z"/>
</g>
</svg>
