<?xml version="1.0" standalone="no"?>
<!DOCTYPE svg PUBLIC "-//W3C//DTD SVG 20010904//EN"
 "http://www.w3.org/TR/2001/REC-SVG-20010904/DTD/svg10.dtd">
<svg version="1.0" xmlns="http://www.w3.org/2000/svg"
 width="100.000000pt" height="100.000000pt" viewBox="0 0 100.000000 100.000000"
 preserveAspectRatio="xMidYMid meet">

<g transform="translate(0.000000,100.000000) scale(0.100000,-0.100000)"
fill="#000000" stroke="none">
<path d="M31 966 l-33 -34 41 -76 c47 -84 55 -91 91 -88 20 2 51 -23 160 -132
106 -107 132 -138 122 -148 -32 -32 7 -108 55 -108 24 0 48 -26 56 -60 4 -14
70 -89 150 -169 136 -134 147 -143 188 -147 54 -6 86 10 117 56 19 28 23 44
19 79 -5 41 -14 53 -148 188 -80 80 -155 146 -169 150 -35 8 -60 32 -60 58 0
47 -77 84 -108 53 -10 -10 -41 16 -148 122 -109 109 -134 140 -132 160 1 14
-1 30 -5 37 -7 10 -147 93 -159 93 -2 0 -19 -15 -37 -34z m105 -47 c44 -25 54
-35 54 -57 0 -21 30 -57 142 -169 113 -113 140 -145 130 -155 -10 -10 -42 17
-155 130 -112 112 -148 142 -169 142 -22 0 -32 10 -58 55 -31 53 -34 85 -9 85
6 0 36 -14 65 -31z m439 -391 c0 -35 48 -85 82 -85 19 0 56 -32 154 -129 70
-70 133 -140 140 -156 23 -57 -18 -118 -79 -118 -31 0 -49 15 -174 138 -110
108 -140 144 -140 165 0 34 -51 82 -86 82 -45 0 -40 32 15 87 54 55 88 62 88
16z"/>
<path d="M614 379 c-4 -7 44 -62 114 -132 97 -97 124 -119 134 -109 10 10 -12
37 -107 132 -66 66 -123 120 -127 120 -4 0 -10 -5 -14 -11z"/>
<path d="M665 975 c-38 -16 -75 -41 -102 -69 -39 -41 -43 -50 -43 -95 0 -28 5
-61 11 -75 10 -22 8 -29 -15 -57 -21 -25 -24 -34 -15 -46 11 -12 19 -8 52 26
l40 39 -16 35 c-23 47 -22 108 2 139 23 29 103 73 151 83 l35 8 -42 -46 c-62
-68 -59 -88 26 -170 83 -80 101 -83 156 -27 21 22 42 40 46 40 11 0 -6 -61
-29 -106 -44 -87 -110 -114 -187 -77 -38 18 -58 13 -79 -20 -16 -26 9 -47 30
-25 14 14 20 14 50 2 79 -33 152 -8 205 71 52 77 76 198 44 225 -12 10 -26 1
-80 -51 l-66 -63 -59 59 c-33 33 -60 64 -60 69 0 6 25 36 56 67 69 69 68 89
-3 89 -27 0 -74 -11 -108 -25z"/>
<path d="M297 452 c-39 -40 -53 -48 -76 -44 -67 10 -162 -43 -196 -108 -53
-102 -6 -233 100 -281 129 -59 277 36 282 180 1 47 5 58 39 92 28 28 35 42 27
50 -15 15 -42 0 -80 -44 -27 -31 -30 -40 -26 -83 3 -38 -1 -58 -19 -89 -78
-133 -276 -98 -304 53 -20 103 93 212 192 188 23 -6 35 1 86 53 55 55 66 81
35 81 -7 0 -34 -22 -60 -48z"/>
<path d="M168 304 c-46 -14 -48 -17 -64 -71 l-16 -56 45 -45 45 -45 58 19 c58
19 58 19 72 73 l13 54 -43 44 c-47 48 -45 47 -110 27z m85 -52 c24 -25 26 -31
17 -63 -8 -29 -17 -38 -47 -47 -35 -11 -40 -10 -65 16 -26 25 -27 30 -16 63
10 34 31 49 79 58 3 1 17 -12 32 -27z"/>
</g>
</svg>
