<?xml version="1.0" standalone="no"?>
<!DOCTYPE svg PUBLIC "-//W3C//DTD SVG 20010904//EN"
 "http://www.w3.org/TR/2001/REC-SVG-20010904/DTD/svg10.dtd">
<svg version="1.0" xmlns="http://www.w3.org/2000/svg"
 width="96.000000pt" height="96.000000pt" viewBox="0 0 96.000000 96.000000"
 preserveAspectRatio="xMidYMid meet">

<g transform="translate(0.000000,96.000000) scale(0.100000,-0.100000)"
fill="#000000" stroke="none">
<path d="M244 773 c-12 -2 -30 -13 -40 -25 -17 -18 -19 -41 -19 -269 0 -245 0
-249 23 -271 22 -23 26 -23 272 -23 246 0 250 0 272 23 23 22 23 26 23 272 0
246 0 250 -23 272 -22 23 -27 23 -255 24 -127 1 -242 0 -253 -3z m464 -65 c17
-17 17 -439 0 -456 -17 -17 -439 -17 -456 0 -17 17 -17 439 0 456 17 17 439
17 456 0z"/>
<path d="M362 547 c-20 -27 -52 -131 -43 -140 6 -6 13 -1 20 12 16 30 67 29
75 -1 4 -17 8 -20 17 -11 9 9 6 27 -11 77 -24 66 -41 85 -58 63z m28 -64 c0
-7 -7 -13 -16 -13 -11 0 -14 5 -10 16 3 9 6 21 6 27 0 16 20 -14 20 -30z"/>
<path d="M470 480 c0 -56 3 -70 15 -70 8 0 15 9 15 20 0 14 7 20 23 20 44 0
74 59 45 88 -7 7 -31 12 -55 12 l-43 0 0 -70z m75 25 c0 -13 -8 -21 -22 -23
-19 -3 -23 1 -23 23 0 22 4 26 23 23 14 -2 22 -10 22 -23z"/>
<path d="M616 534 c-9 -24 -7 -97 4 -114 9 -13 11 -13 20 0 18 28 10 130 -10
130 -4 0 -11 -7 -14 -16z"/>
</g>
</svg>
