<?xml version="1.0" standalone="no"?>
<!DOCTYPE svg PUBLIC "-//W3C//DTD SVG 20010904//EN"
 "http://www.w3.org/TR/2001/REC-SVG-20010904/DTD/svg10.dtd">
<svg version="1.0" xmlns="http://www.w3.org/2000/svg"
 width="100.000000pt" height="100.000000pt" viewBox="0 0 100.000000 100.000000"
 preserveAspectRatio="xMidYMid meet">

<g transform="translate(0.000000,100.000000) scale(0.100000,-0.100000)"
fill="#000000" stroke="none">
<path d="M260 748 l0 -192 90 -132 c104 -153 110 -164 83 -164 -11 0 -48 -25
-84 -56 l-64 -55 -3 55 -3 56 -45 0 c-34 0 -51 6 -69 25 l-25 24 0 241 0 241
25 24 c13 14 36 25 50 25 19 0 25 5 25 21 0 19 -4 21 -37 16 -22 -4 -49 -19
-68 -37 l-30 -30 0 -260 0 -259 30 -31 c18 -19 43 -33 67 -36 l37 -6 3 -79 3
-80 91 80 91 80 211 3 212 3 32 33 33 32 0 260 0 260 -33 32 -32 33 -175 3
-175 3 0 30 0 29 -120 0 -120 0 0 -192z m200 7 l0 -145 -40 16 c-37 15 -43 15
-80 0 l-40 -16 0 145 0 145 80 0 80 0 0 -145z m395 60 c25 -24 25 -26 25 -210
l0 -185 -236 0 -236 0 18 28 c10 15 30 45 46 66 28 38 28 41 28 183 l0 143
165 0 c163 0 166 0 190 -25z m-423 -237 l27 -10 -22 -34 c-18 -28 -28 -34 -57
-34 -29 0 -39 6 -57 34 l-22 34 37 15 c20 8 44 13 52 10 8 -3 27 -9 42 -15z
m448 -233 c0 -25 -8 -44 -25 -60 -24 -25 -27 -25 -189 -25 l-164 0 -20 33
c-11 19 -27 46 -37 60 l-17 27 226 0 226 0 0 -35z"/>
</g>
</svg>
