<?xml version="1.0" standalone="no"?>
<!DOCTYPE svg PUBLIC "-//W3C//DTD SVG 20010904//EN"
 "http://www.w3.org/TR/2001/REC-SVG-20010904/DTD/svg10.dtd">
<svg version="1.0" xmlns="http://www.w3.org/2000/svg"
 width="100.000000pt" height="100.000000pt" viewBox="0 0 100.000000 100.000000"
 preserveAspectRatio="xMidYMid meet">

<g transform="translate(0.000000,100.000000) scale(0.100000,-0.100000)"
fill="#000000" stroke="none">
<path d="M411 945 c-230 -65 -381 -292 -343 -518 40 -240 249 -401 497 -384
133 10 213 45 308 136 48 46 56 68 35 89 -21 21 -39 13 -99 -42 -83 -78 -145
-100 -279 -100 -99 -1 -109 1 -172 32 -83 41 -158 119 -189 200 -18 43 -23 77
-23 142 -1 75 3 93 31 152 100 213 366 293 553 166 149 -100 173 -304 49 -427
-34 -35 -98 -71 -125 -71 -29 0 -11 83 52 240 43 107 55 147 47 159 -14 22
-47 25 -63 6 -11 -13 -16 -13 -46 5 -48 30 -124 37 -179 15 -61 -23 -140 -102
-172 -171 -36 -79 -43 -176 -15 -230 24 -48 46 -69 95 -89 51 -21 96 -19 149
8 l46 23 28 -24 c51 -45 152 -15 237 70 156 156 133 423 -47 547 -103 71 -259
98 -375 66z m194 -287 c14 -13 27 -32 27 -43 3 -32 -72 -211 -104 -249 -50
-61 -141 -58 -173 5 -73 141 138 383 250 287z"/>
</g>
</svg>
