<?xml version="1.0" standalone="no"?>
<!DOCTYPE svg PUBLIC "-//W3C//DTD SVG 20010904//EN"
 "http://www.w3.org/TR/2001/REC-SVG-20010904/DTD/svg10.dtd">
<svg version="1.0" xmlns="http://www.w3.org/2000/svg"
 width="96.000000pt" height="96.000000pt" viewBox="0 0 96.000000 96.000000"
 preserveAspectRatio="xMidYMid meet">

<g transform="translate(0.000000,96.000000) scale(0.100000,-0.100000)"
fill="#000000" stroke="none">
<path d="M163 730 c-29 -27 -35 -79 -31 -267 3 -138 6 -164 21 -181 30 -33 64
-34 87 -1 l20 28 -27 3 -28 3 -3 188 -2 187 280 0 280 0 -2 -187 -3 -188 -28
-3 -27 -3 20 -28 c23 -33 57 -32 87 1 15 17 18 43 21 181 4 188 -2 240 -31
267 -20 19 -36 20 -317 20 -281 0 -297 -1 -317 -20z"/>
<path d="M428 614 c-99 -53 -59 -224 52 -224 34 0 78 28 95 60 54 105 -48 218
-147 164z m84 -61 c33 -30 12 -103 -30 -103 -45 0 -68 66 -35 102 20 22 41 23
65 1z"/>
<path d="M396 345 c-51 -18 -85 -44 -113 -85 -25 -36 -30 -79 -11 -98 17 -17
399 -17 416 0 19 19 14 62 -11 99 -57 84 -178 121 -281 84z m187 -74 c17 -11
38 -29 45 -40 12 -21 11 -21 -148 -21 l-161 0 15 21 c18 26 50 49 84 60 41 13
129 3 165 -20z"/>
</g>
</svg>
