<?xml version="1.0" standalone="no"?>
<!DOCTYPE svg PUBLIC "-//W3C//DTD SVG 20010904//EN"
 "http://www.w3.org/TR/2001/REC-SVG-20010904/DTD/svg10.dtd">
<svg version="1.0" xmlns="http://www.w3.org/2000/svg"
 width="100.000000pt" height="100.000000pt" viewBox="0 0 100.000000 100.000000"
 preserveAspectRatio="xMidYMid meet">

<g transform="translate(0.000000,100.000000) scale(0.100000,-0.100000)"
fill="#000000" stroke="none">
<path d="M75 951 c-11 -5 -31 -21 -45 -36 l-25 -27 0 -339 0 -339 33 -32 32
-33 465 -3 465 -3 0 361 0 360 -385 0 c-334 0 -385 2 -385 15 0 8 -12 29 -27
45 -30 33 -90 48 -128 31z m100 -56 l25 -24 0 -260 0 -260 -27 15 c-35 18 -71
18 -106 0 l-27 -15 0 260 0 260 25 24 c15 16 36 25 55 25 19 0 40 -9 55 -25z
m785 -395 l0 -320 -435 0 -436 0 -24 25 c-50 49 -15 135 55 135 33 0 80 -38
80 -65 0 -8 9 -15 20 -15 20 0 20 7 20 280 l0 280 360 0 360 0 0 -320z"/>
<path d="M728 677 c12 -13 22 -28 22 -33 0 -5 -23 -32 -50 -59 l-50 -49 -55
54 c-62 61 -46 64 -157 -33 -42 -37 -65 -64 -61 -73 9 -23 22 -17 94 48 l70
62 54 -54 55 -54 63 62 c34 34 66 62 71 62 5 0 19 -11 32 -26 l24 -25 0 70 0
71 -67 0 -66 0 21 -23z"/>
<path d="M340 340 c0 -19 7 -20 250 -20 243 0 250 1 250 20 0 19 -7 20 -250
20 -243 0 -250 -1 -250 -20z"/>
</g>
</svg>
