<?xml version="1.0" standalone="no"?>
<!DOCTYPE svg PUBLIC "-//W3C//DTD SVG 20010904//EN"
 "http://www.w3.org/TR/2001/REC-SVG-20010904/DTD/svg10.dtd">
<svg version="1.0" xmlns="http://www.w3.org/2000/svg"
 width="100.000000pt" height="100.000000pt" viewBox="0 0 100.000000 100.000000"
 preserveAspectRatio="xMidYMid meet">

<g transform="translate(0.000000,100.000000) scale(0.100000,-0.100000)"
fill="#000000" stroke="none">
<path d="M426 945 c-3 -8 -8 -38 -12 -66 -6 -45 -11 -52 -40 -66 -32 -16 -34
-16 -86 20 -29 21 -58 37 -64 37 -11 0 -94 -84 -94 -95 0 -3 16 -29 36 -59 34
-52 35 -55 21 -88 -13 -32 -19 -36 -66 -42 -82 -11 -81 -10 -81 -86 0 -76 -3
-74 84 -86 43 -6 50 -10 63 -42 14 -34 14 -36 -21 -87 -20 -28 -36 -56 -36
-62 0 -10 84 -93 95 -93 3 0 30 17 61 37 54 36 55 36 88 20 29 -14 34 -21 40
-66 11 -82 10 -81 86 -81 76 0 74 -3 86 83 6 42 11 51 40 64 33 16 34 16 88
-20 31 -20 58 -37 61 -37 11 0 95 83 95 93 0 6 -17 35 -37 64 -36 53 -36 54
-21 87 14 29 23 34 65 40 86 12 83 10 83 86 0 76 1 75 -81 86 -45 6 -52 11
-66 40 -16 33 -16 34 21 89 29 43 34 59 27 74 -11 19 -77 81 -88 81 -4 0 -31
-17 -60 -37 -53 -36 -54 -36 -87 -21 -29 14 -34 23 -40 65 -12 86 -10 83 -86
83 -51 0 -69 -4 -74 -15z m123 -86 c6 -34 12 -62 13 -63 2 -1 26 -11 55 -23
l51 -20 51 35 52 36 26 -26 27 -27 -36 -51 -36 -51 21 -52 c12 -29 22 -53 23
-55 1 -1 29 -7 63 -13 l61 -11 0 -38 0 -38 -61 -11 c-34 -6 -62 -12 -63 -13
-1 -2 -11 -26 -23 -55 l-20 -51 35 -51 36 -52 -26 -26 -27 -27 -51 36 -51 36
-52 -21 c-29 -12 -53 -22 -55 -23 -1 -1 -7 -29 -13 -63 l-11 -61 -39 0 -38 0
-7 50 c-8 61 -17 73 -76 98 l-47 20 -51 -36 -51 -36 -27 27 -26 26 36 52 36
51 -20 47 c-25 58 -37 67 -98 75 l-50 7 0 39 0 39 50 7 c61 8 73 17 98 76 l20
47 -36 51 -36 51 27 27 26 26 52 -36 51 -35 51 20 c29 12 53 22 55 23 1 1 7
29 13 63 l11 61 38 0 38 0 11 -61z"/>
<path d="M435 646 c-101 -44 -125 -178 -46 -257 65 -65 157 -65 222 0 124 124
-15 327 -176 257z m149 -65 c26 -27 31 -39 31 -81 0 -43 -5 -54 -33 -82 -28
-28 -39 -33 -82 -33 -43 0 -54 5 -82 33 -28 28 -33 39 -33 81 0 52 25 92 70
112 37 16 96 3 129 -30z"/>
</g>
</svg>
