<?xml version="1.0" standalone="no"?>
<!DOCTYPE svg PUBLIC "-//W3C//DTD SVG 20010904//EN"
 "http://www.w3.org/TR/2001/REC-SVG-20010904/DTD/svg10.dtd">
<svg version="1.0" xmlns="http://www.w3.org/2000/svg"
 width="100.000000pt" height="100.000000pt" viewBox="0 0 100.000000 100.000000"
 preserveAspectRatio="xMidYMid meet">

<g transform="translate(0.000000,100.000000) scale(0.100000,-0.100000)"
fill="#000000" stroke="none">
<path d="M84 815 l-25 -25 3 -255 3 -255 -28 0 c-34 0 -43 -21 -27 -61 23 -54
45 -59 295 -59 218 0 225 1 225 20 0 19 -7 20 -221 20 -210 0 -259 6 -259 30
0 6 92 10 239 10 209 0 240 2 245 16 3 9 6 18 6 20 0 2 -94 4 -208 4 -148 0
-211 3 -220 12 -17 17 -17 479 0 496 17 17 759 17 776 0 9 -9 12 -69 12 -210
0 -191 1 -198 20 -198 19 0 20 7 20 205 0 205 0 206 -25 230 l-24 25 -391 0
-391 0 -25 -25z"/>
<path d="M709 431 c-19 -20 -29 -40 -29 -60 0 -30 -1 -31 -49 -31 l-48 0 -6
-67 c-21 -229 -21 -229 2 -252 20 -20 31 -21 191 -21 160 0 171 1 191 21 23
23 23 23 2 252 l-6 67 -48 0 c-48 0 -49 1 -49 31 0 42 -47 89 -90 89 -22 0
-41 -9 -61 -29z m95 -27 c9 -8 16 -26 16 -40 0 -22 -4 -24 -50 -24 -46 0 -50
2 -50 24 0 48 52 73 84 40z m120 -156 c4 -29 7 -87 9 -128 l2 -75 -165 0 -165
0 2 75 c2 41 5 99 9 128 l5 52 149 0 149 0 5 -52z"/>
</g>
</svg>
