<?xml version="1.0" standalone="no"?>
<!DOCTYPE svg PUBLIC "-//W3C//DTD SVG 20010904//EN"
 "http://www.w3.org/TR/2001/REC-SVG-20010904/DTD/svg10.dtd">
<svg version="1.0" xmlns="http://www.w3.org/2000/svg"
 width="90.000000pt" height="90.000000pt" viewBox="0 0 90.000000 90.000000"
 preserveAspectRatio="xMidYMid meet">

<g transform="translate(0.000000,90.000000) scale(0.100000,-0.100000)"
fill="#000000" stroke="none">
<path d="M110 760 c-19 -19 -20 -33 -20 -250 0 -217 1 -231 20 -250 21 -21
103 -29 114 -11 3 4 26 14 51 21 25 7 48 17 51 21 3 5 -4 23 -16 39 -20 28
-25 30 -91 30 l-69 0 0 180 0 180 300 0 300 0 0 -180 0 -180 -72 0 c-71 0 -73
-1 -91 -31 -9 -17 -15 -34 -12 -39 2 -4 25 -13 50 -20 25 -7 48 -17 51 -21 11
-18 93 -10 114 11 19 19 20 33 20 250 0 217 -1 231 -20 250 -19 19 -33 20
-340 20 -307 0 -321 -1 -340 -20z"/>
<path d="M382 613 c-50 -24 -65 -63 -57 -142 5 -48 15 -77 36 -109 18 -26 29
-56 29 -77 0 -32 -3 -34 -70 -60 -40 -15 -78 -38 -90 -52 -41 -53 -40 -53 220
-53 260 0 261 0 220 53 -12 14 -50 37 -90 52 -67 26 -70 28 -70 60 0 21 11 51
29 77 51 77 48 217 -6 234 -10 3 -30 12 -45 20 -34 18 -65 17 -106 -3z"/>
</g>
</svg>
