<?xml version="1.0" standalone="no"?>
<!DOCTYPE svg PUBLIC "-//W3C//DTD SVG 20010904//EN"
 "http://www.w3.org/TR/2001/REC-SVG-20010904/DTD/svg10.dtd">
<svg version="1.0" xmlns="http://www.w3.org/2000/svg"
 width="100.000000pt" height="100.000000pt" viewBox="0 0 100.000000 100.000000"
 preserveAspectRatio="xMidYMid meet">

<g transform="translate(0.000000,100.000000) scale(0.100000,-0.100000)"
fill="#000000" stroke="none">
<path d="M386 944 c-224 -54 -376 -287 -338 -516 62 -368 512 -515 773 -253
329 330 18 879 -435 769z m219 -39 c312 -81 418 -473 191 -701 -241 -240 -651
-107 -709 230 -50 295 226 546 518 471z"/>
<path d="M415 871 c-112 -29 -208 -107 -257 -210 -29 -59 -32 -75 -32 -156 0
-123 26 -189 108 -271 81 -81 148 -108 266 -108 118 0 185 27 266 108 81 81
108 148 108 266 0 118 -27 185 -108 266 -45 44 -77 67 -121 84 -64 24 -179 35
-230 21z m181 -46 c27 -8 64 -24 81 -35 30 -18 32 -22 22 -47 -8 -22 -4 -38
26 -99 45 -93 45 -136 2 -274 l-33 -105 -67 200 c-37 110 -67 206 -67 213 0 6
11 12 25 12 16 0 25 6 25 15 0 13 -20 15 -120 15 -98 0 -120 -3 -120 -14 0 -8
12 -16 26 -18 24 -3 30 -13 57 -87 l30 -83 -33 -102 c-18 -55 -37 -112 -43
-126 -8 -22 -18 1 -78 180 -38 112 -69 208 -69 212 0 5 11 8 25 8 16 0 25 6
25 15 0 10 -10 15 -30 15 -16 0 -30 4 -30 9 0 15 105 82 151 96 59 18 134 18
195 0z m214 -194 c0 -9 -4 -22 -8 -28 -10 -15 -62 86 -62 120 0 18 7 12 35
-27 19 -27 35 -57 35 -65z m-515 -182 c41 -123 75 -231 75 -241 0 -47 -22 0
-98 208 -66 183 -80 230 -71 246 6 11 13 18 15 15 3 -2 38 -105 79 -228z m297
1 c80 -236 85 -254 66 -248 -11 4 -69 150 -153 386 -33 92 -33 93 -12 90 19
-3 32 -33 99 -228z m-369 -30 c25 -69 50 -137 56 -152 14 -36 9 -35 -29 5 -51
52 -83 130 -88 216 -3 51 -1 73 6 66 5 -5 30 -66 55 -135z m617 90 c0 -71 -21
-139 -62 -200 -22 -33 -44 -60 -48 -60 -5 0 14 67 43 150 29 82 55 150 60 150
4 0 7 -18 7 -40z m-286 -187 c25 -71 46 -133 46 -140 0 -16 -80 -27 -142 -20
-28 4 -52 8 -55 10 -5 6 90 277 98 277 3 0 27 -57 53 -127z"/>
</g>
</svg>
